<?xml version="1.0" encoding="UTF-8" standalone="no"?>
<!-- Generator: Adobe Illustrator 19.0.0, SVG Export Plug-In . SVG Version: 6.00 Build 0)  -->

<svg
   version="1.1"
   id="Layer_1"
   x="0px"
   y="0px"
   viewBox="0 0 64.000003 64.000003"
   xml:space="preserve"
   width="64"
   height="64"
   xmlns="http://www.w3.org/2000/svg"
   xmlns:svg="http://www.w3.org/2000/svg"><defs
   id="defs726" />
<path
   d="m 60.757817,32.097765 c -0.339725,-1.037692 -1.456049,-1.603002 -2.493506,-1.263628 l -2.649716,0.867418 C 55.317292,30.117889 54.887215,28.514536 54.332686,26.918683 58.88634,25.15537 62,20.753356 62,15.699899 62,3.7197497 46.314749,-0.84175555 39.861024,9.1548847 34.907645,6.7164567 29.466065,6.5407937 24.138624,9.1537137 17.672829,-0.85874765 2,3.7353357 2,15.699899 2,20.753473 5.1136597,25.155604 9.6675482,26.9188 9.1133707,28.515005 8.6825911,30.118475 8.3854047,31.701555 L 5.7354542,30.834019 C 4.698466,30.495115 3.5816735,31.06019 3.2419483,32.097647 c -0.3396081,1.037457 0.226171,2.154133 1.2636279,2.493741 l 3.4113147,1.116675 c -0.115312,2.602958 0.1457807,5.232753 1.0394491,7.714657 l -4.3840844,1.26562 c -1.0488241,0.302694 -1.6537436,1.39851 -1.3509322,2.447335 0.3029285,1.049409 1.3992132,1.653743 2.4474513,1.350932 l 5.1420503,-1.484409 c 3.456901,4.898419 9.375198,6.976731 15.304276,7.707744 v 3.643462 c 0,1.091715 0.884997,1.976711 1.976711,1.976711 h 7.816259 c 1.091714,0 1.976711,-0.884996 1.976711,-1.976711 v -3.643579 c 5.926148,-0.730544 11.846321,-2.807568 15.304276,-7.707627 l 5.14205,1.484409 c 1.048941,0.302928 2.144757,-0.302343 2.447451,-1.350932 0.302695,-1.048825 -0.301991,-2.144641 -1.350932,-2.447335 l -4.384084,-1.26562 c 0.882301,-2.449678 1.156636,-5.066581 1.039449,-7.714657 l 3.411315,-1.116675 c 1.037457,-0.339726 1.603118,-1.456167 1.26351,-2.493623 z M 58.046344,15.699899 c 0,3.418815 -2.119562,6.395131 -5.212363,7.561494 -2.207452,-4.645295 -5.528064,-9.045434 -9.597853,-12.044836 4.396858,-6.6198963 14.810216,-3.5004943 14.810216,4.483342 z m -52.0929219,0 c 0,-7.9978993 10.4198029,-11.0843713 14.8074029,-4.487561 -4.09346,3.01077 -7.405987,7.435635 -9.595626,12.048703 C 8.0728669,22.094679 5.9534221,19.118362 5.9534221,15.699899 Z M 31.999883,45.461892 27.788415,41.048159 h 8.422819 z m -1.93136,10.914801 v -1.361245 c 1.284605,0.04535 2.576709,0.04547 3.862837,0 v 1.361128 H 30.068523 Z M 51.236605,42.323857 46.358342,40.915621 c -1.048355,-0.302694 -2.144523,0.301991 -2.447451,1.350932 -0.302694,1.048824 0.301991,2.14464 1.350932,2.447334 l 3.813618,1.100855 c -3.597525,3.905376 -9.811719,5.035996 -15.098964,5.242714 v -1.9405 l 6.021421,-6.310874 C 42.04457,40.66109 40.522076,37.09462 37.553377,37.09462 H 26.44592 c -2.964715,0 -4.494006,3.563658 -2.444639,5.711345 l 6.021539,6.310991 v 1.9405 C 24.74038,50.850973 18.523021,49.721993 14.923856,45.814742 l 3.813618,-1.100855 c 1.048824,-0.302694 1.653743,-1.39851 1.350932,-2.447334 -0.302811,-1.048941 -1.399096,-1.653978 -2.447451,-1.350932 l -4.878263,1.408236 c -0.599177,-1.554251 -0.903043,-3.325299 -0.918746,-5.330018 l 5.730212,1.87593 c 1.039332,0.339843 2.154366,-0.227694 2.493506,-1.263628 0.339608,-1.037456 -0.226171,-2.154132 -1.263628,-2.49374 l -6.624935,-2.168663 c 0.344647,-2.057453 0.957652,-4.23807 1.905696,-6.525092 9.622345,-21.4201513 27.912898,-18.9371923 35.807672,-0.04898 0.95402,2.282452 1.580267,4.499162 1.927727,6.573841 l -6.625638,2.169015 c -1.037691,0.339608 -1.603353,1.456167 -1.263628,2.493741 0.339608,1.036988 1.455229,1.603236 2.493506,1.263627 l 5.730212,-1.87593 c -0.015,2.004485 -0.318866,3.77565 -0.918043,5.329901 z M 24.583935,28.148444 c 0.0013,-1.444213 -1.168355,-2.615966 -2.612568,-2.617255 -1.444213,-0.0013 -2.615966,1.168354 -2.617255,2.612568 -0.0013,1.444213 1.168355,2.615966 2.612568,2.617255 1.444213,0.0013 2.615966,-1.168355 2.617255,-2.612568 z m 19.959063,0.01723 c 0.0013,-1.444213 -1.168355,-2.615966 -2.612568,-2.617255 -1.444213,-0.0013 -2.615966,1.168355 -2.617255,2.612568 -0.0013,1.444213 1.168354,2.615966 2.612567,2.617255 1.444214,0.0013 2.615967,-1.168354 2.617256,-2.612568 z"
   id="path691"
   style="stroke-width:0.117187" />
<g
   id="g693"
   transform="matrix(0.11718704,0,0,0.11718704,2,2.0000307)">
</g>
<g
   id="g695"
   transform="matrix(0.11718704,0,0,0.11718704,2,2.0000307)">
</g>
<g
   id="g697"
   transform="matrix(0.11718704,0,0,0.11718704,2,2.0000307)">
</g>
<g
   id="g699"
   transform="matrix(0.11718704,0,0,0.11718704,2,2.0000307)">
</g>
<g
   id="g701"
   transform="matrix(0.11718704,0,0,0.11718704,2,2.0000307)">
</g>
<g
   id="g703"
   transform="matrix(0.11718704,0,0,0.11718704,2,2.0000307)">
</g>
<g
   id="g705"
   transform="matrix(0.11718704,0,0,0.11718704,2,2.0000307)">
</g>
<g
   id="g707"
   transform="matrix(0.11718704,0,0,0.11718704,2,2.0000307)">
</g>
<g
   id="g709"
   transform="matrix(0.11718704,0,0,0.11718704,2,2.0000307)">
</g>
<g
   id="g711"
   transform="matrix(0.11718704,0,0,0.11718704,2,2.0000307)">
</g>
<g
   id="g713"
   transform="matrix(0.11718704,0,0,0.11718704,2,2.0000307)">
</g>
<g
   id="g715"
   transform="matrix(0.11718704,0,0,0.11718704,2,2.0000307)">
</g>
<g
   id="g717"
   transform="matrix(0.11718704,0,0,0.11718704,2,2.0000307)">
</g>
<g
   id="g719"
   transform="matrix(0.11718704,0,0,0.11718704,2,2.0000307)">
</g>
<g
   id="g721"
   transform="matrix(0.11718704,0,0,0.11718704,2,2.0000307)">
</g>
</svg>
